<mxfile host="www.draw.io" modified="2019-12-18T21:43:56.057Z" agent="Mozilla/5.0 (Macintosh; Intel Mac OS X 10_15_1) AppleWebKit/537.36 (KHTML, like Gecko) Chrome/78.0.3904.108 Safari/537.36" etag="GsGmGb-whBN7j6oNo09y" version="12.4.3" type="github" pages="11">
  <diagram id="RnJkvEcWTYdA2Jqj87wk" name="01 - goals">
    <mxGraphModel dx="996" dy="478" grid="1" gridSize="10" guides="1" tooltips="1" connect="1" arrows="1" fold="1" page="1" pageScale="1" pageWidth="1920" pageHeight="1200" math="0" shadow="0">
      <root>
        <mxCell id="0"/>
        <mxCell id="1" parent="0"/>
        <mxCell id="DZ23XbLGNVvMsRwcFlnc-1" value="" style="strokeWidth=1;shadow=0;dashed=0;align=center;html=1;shape=mxgraph.mockup.containers.browserWindow;rSize=0;strokeColor=#666666;strokeColor2=#008cff;strokeColor3=#c4c4c4;mainText=,;recursiveResize=0;" vertex="1" parent="1">
          <mxGeometry x="380" y="150" width="660" height="420" as="geometry"/>
        </mxCell>
        <mxCell id="DZ23XbLGNVvMsRwcFlnc-2" value="Page 1" style="strokeWidth=1;shadow=0;dashed=0;align=center;html=1;shape=mxgraph.mockup.containers.anchor;fontSize=17;fontColor=#666666;align=left;" vertex="1" parent="DZ23XbLGNVvMsRwcFlnc-1">
          <mxGeometry x="60" y="12" width="110" height="26" as="geometry"/>
        </mxCell>
        <mxCell id="DZ23XbLGNVvMsRwcFlnc-3" value="https://www.draw.io" style="strokeWidth=1;shadow=0;dashed=0;align=center;html=1;shape=mxgraph.mockup.containers.anchor;rSize=0;fontSize=17;fontColor=#666666;align=left;" vertex="1" parent="DZ23XbLGNVvMsRwcFlnc-1">
          <mxGeometry x="130" y="60" width="250" height="26" as="geometry"/>
        </mxCell>
        <mxCell id="DZ23XbLGNVvMsRwcFlnc-4" value="&amp;nbsp; space" style="rounded=0;whiteSpace=wrap;html=1;align=left;" vertex="1" parent="DZ23XbLGNVvMsRwcFlnc-1">
          <mxGeometry x="60" y="120" width="530" height="40" as="geometry"/>
        </mxCell>
        <mxCell id="DZ23XbLGNVvMsRwcFlnc-5" value="Title" style="text;html=1;strokeColor=none;fillColor=none;align=center;verticalAlign=middle;whiteSpace=wrap;rounded=0;fontStyle=1" vertex="1" parent="DZ23XbLGNVvMsRwcFlnc-1">
          <mxGeometry x="70" y="180" width="40" height="20" as="geometry"/>
        </mxCell>
        <mxCell id="DZ23XbLGNVvMsRwcFlnc-6" value="Wordcount" style="text;html=1;strokeColor=none;fillColor=none;align=center;verticalAlign=middle;whiteSpace=wrap;rounded=0;fontStyle=1" vertex="1" parent="DZ23XbLGNVvMsRwcFlnc-1">
          <mxGeometry x="170" y="180" width="70" height="20" as="geometry"/>
        </mxCell>
        <mxCell id="DZ23XbLGNVvMsRwcFlnc-7" value="Snippet" style="text;html=1;strokeColor=none;fillColor=none;align=center;verticalAlign=middle;whiteSpace=wrap;rounded=0;fontStyle=1" vertex="1" parent="DZ23XbLGNVvMsRwcFlnc-1">
          <mxGeometry x="310" y="180" width="70" height="20" as="geometry"/>
        </mxCell>
        <mxCell id="DZ23XbLGNVvMsRwcFlnc-8" value="" style="endArrow=none;html=1;" edge="1" parent="DZ23XbLGNVvMsRwcFlnc-1">
          <mxGeometry width="50" height="50" relative="1" as="geometry">
            <mxPoint x="55" y="209.66999999999996" as="sourcePoint"/>
            <mxPoint x="595" y="209.66999999999996" as="targetPoint"/>
          </mxGeometry>
        </mxCell>
        <mxCell id="DZ23XbLGNVvMsRwcFlnc-9" value="Space" style="text;html=1;strokeColor=none;fillColor=none;align=center;verticalAlign=middle;whiteSpace=wrap;rounded=0;fontStyle=1" vertex="1" parent="DZ23XbLGNVvMsRwcFlnc-1">
          <mxGeometry x="70" y="220" width="40" height="20" as="geometry"/>
        </mxCell>
        <mxCell id="DZ23XbLGNVvMsRwcFlnc-10" value="1024" style="text;html=1;strokeColor=none;fillColor=none;align=center;verticalAlign=middle;whiteSpace=wrap;rounded=0;fontStyle=0" vertex="1" parent="DZ23XbLGNVvMsRwcFlnc-1">
          <mxGeometry x="170" y="220" width="70" height="20" as="geometry"/>
        </mxCell>
        <mxCell id="DZ23XbLGNVvMsRwcFlnc-11" value="Space is the boundless three-dimensional extent in which objects and events have relative position and direction. Physical space is often conceived in" style="text;html=1;strokeColor=none;fillColor=none;align=left;verticalAlign=middle;whiteSpace=wrap;rounded=0;fontStyle=0;fontSize=10;" vertex="1" parent="DZ23XbLGNVvMsRwcFlnc-1">
          <mxGeometry x="310" y="223" width="290" height="20" as="geometry"/>
        </mxCell>
        <mxCell id="DZ23XbLGNVvMsRwcFlnc-12" value="NASA" style="text;html=1;strokeColor=none;fillColor=none;align=center;verticalAlign=middle;whiteSpace=wrap;rounded=0;fontStyle=1" vertex="1" parent="DZ23XbLGNVvMsRwcFlnc-1">
          <mxGeometry x="70" y="270" width="40" height="20" as="geometry"/>
        </mxCell>
        <mxCell id="DZ23XbLGNVvMsRwcFlnc-13" value="1024" style="text;html=1;strokeColor=none;fillColor=none;align=center;verticalAlign=middle;whiteSpace=wrap;rounded=0;fontStyle=0" vertex="1" parent="DZ23XbLGNVvMsRwcFlnc-1">
          <mxGeometry x="170" y="270" width="70" height="20" as="geometry"/>
        </mxCell>
        <mxCell id="DZ23XbLGNVvMsRwcFlnc-14" value="Aeronautics and Space Administration (NASA, /ˈnæsə/) is an independent agency of the United States Federal Government responsible for the civilian space program" style="text;html=1;strokeColor=none;fillColor=none;align=left;verticalAlign=middle;whiteSpace=wrap;rounded=0;fontStyle=0;fontSize=10;" vertex="1" parent="DZ23XbLGNVvMsRwcFlnc-1">
          <mxGeometry x="310" y="273" width="290" height="20" as="geometry"/>
        </mxCell>
        <mxCell id="DZ23XbLGNVvMsRwcFlnc-15" value="Space Station" style="text;html=1;strokeColor=none;fillColor=none;align=left;verticalAlign=middle;whiteSpace=wrap;rounded=0;fontStyle=1" vertex="1" parent="DZ23XbLGNVvMsRwcFlnc-1">
          <mxGeometry x="70" y="320" width="100" height="20" as="geometry"/>
        </mxCell>
        <mxCell id="DZ23XbLGNVvMsRwcFlnc-16" value="1024" style="text;html=1;strokeColor=none;fillColor=none;align=center;verticalAlign=middle;whiteSpace=wrap;rounded=0;fontStyle=0" vertex="1" parent="DZ23XbLGNVvMsRwcFlnc-1">
          <mxGeometry x="170" y="320" width="70" height="20" as="geometry"/>
        </mxCell>
        <mxCell id="DZ23XbLGNVvMsRwcFlnc-17" value="The International Space Station (ISS) is a space station (habitable artificial satellite) in low Earth orbit. The ISS programme is a joint project between" style="text;html=1;strokeColor=none;fillColor=none;align=left;verticalAlign=middle;whiteSpace=wrap;rounded=0;fontStyle=0;fontSize=10;" vertex="1" parent="DZ23XbLGNVvMsRwcFlnc-1">
          <mxGeometry x="310" y="323" width="290" height="20" as="geometry"/>
        </mxCell>
      </root>
    </mxGraphModel>
  </diagram>
  <diagram id="J-fQIyFHeudC6-GqFB-S" name="02 - focuses">
    <mxGraphModel dx="747" dy="359" grid="1" gridSize="10" guides="1" tooltips="1" connect="1" arrows="1" fold="1" page="1" pageScale="1" pageWidth="1920" pageHeight="1200" math="0" shadow="0">
      <root>
        <mxCell id="EgFu69-6vCB50pgu1yUX-0"/>
        <mxCell id="EgFu69-6vCB50pgu1yUX-1" parent="EgFu69-6vCB50pgu1yUX-0"/>
        <mxCell id="EgFu69-6vCB50pgu1yUX-2" value="App Goals" style="text;html=1;strokeColor=none;fillColor=none;align=center;verticalAlign=middle;whiteSpace=wrap;rounded=0;fontSize=30;fontStyle=1" vertex="1" parent="EgFu69-6vCB50pgu1yUX-1">
          <mxGeometry x="440" y="120" width="190" height="30" as="geometry"/>
        </mxCell>
        <mxCell id="EgFu69-6vCB50pgu1yUX-3" value="Need to figure out how to fetch data from an outside API" style="rounded=0;whiteSpace=wrap;html=1;fontSize=17;align=center;fillColor=#dae8fc;strokeColor=#6c8ebf;" vertex="1" parent="EgFu69-6vCB50pgu1yUX-1">
          <mxGeometry x="272.5" y="160" width="525" height="50" as="geometry"/>
        </mxCell>
        <mxCell id="EgFu69-6vCB50pgu1yUX-4" value="Need to learn more about communicating between components" style="rounded=0;whiteSpace=wrap;html=1;fontSize=17;align=center;fillColor=#dae8fc;strokeColor=#6c8ebf;" vertex="1" parent="EgFu69-6vCB50pgu1yUX-1">
          <mxGeometry x="272.5" y="220" width="525" height="50" as="geometry"/>
        </mxCell>
        <mxCell id="EgFu69-6vCB50pgu1yUX-5" value="Need to learn more about Typescript to catch errors during development" style="rounded=0;whiteSpace=wrap;html=1;fontSize=17;align=center;fillColor=#dae8fc;strokeColor=#6c8ebf;" vertex="1" parent="EgFu69-6vCB50pgu1yUX-1">
          <mxGeometry x="272.5" y="280" width="525" height="50" as="geometry"/>
        </mxCell>
        <mxCell id="EgFu69-6vCB50pgu1yUX-6" value="Need to learn about Angular app security" style="rounded=0;whiteSpace=wrap;html=1;fontSize=17;align=center;fillColor=#dae8fc;strokeColor=#6c8ebf;" vertex="1" parent="EgFu69-6vCB50pgu1yUX-1">
          <mxGeometry x="272.5" y="340" width="525" height="50" as="geometry"/>
        </mxCell>
      </root>
    </mxGraphModel>
  </diagram>
  <diagram id="L5phUsSafCJWJInm5_UA" name="03 - comps">
    <mxGraphModel dx="996" dy="478" grid="1" gridSize="10" guides="1" tooltips="1" connect="1" arrows="1" fold="1" page="1" pageScale="1" pageWidth="1920" pageHeight="1200" math="0" shadow="0">
      <root>
        <mxCell id="HU6yM0TjJW2TB_AY_Mo2-0"/>
        <mxCell id="HU6yM0TjJW2TB_AY_Mo2-1" parent="HU6yM0TjJW2TB_AY_Mo2-0"/>
        <mxCell id="Rxs8dUcnRsXy0uVN2g_E-0" value="" style="strokeWidth=1;shadow=0;dashed=0;align=center;html=1;shape=mxgraph.mockup.containers.browserWindow;rSize=0;strokeColor=#666666;strokeColor2=#008cff;strokeColor3=#c4c4c4;mainText=,;recursiveResize=0;" vertex="1" parent="HU6yM0TjJW2TB_AY_Mo2-1">
          <mxGeometry x="380" y="150" width="660" height="420" as="geometry"/>
        </mxCell>
        <mxCell id="Rxs8dUcnRsXy0uVN2g_E-18" value="" style="rounded=0;whiteSpace=wrap;html=1;fontSize=17;align=center;fillColor=#e1d5e7;strokeColor=#9673a6;" vertex="1" parent="Rxs8dUcnRsXy0uVN2g_E-0">
          <mxGeometry x="30" y="170" width="580" height="210" as="geometry"/>
        </mxCell>
        <mxCell id="Rxs8dUcnRsXy0uVN2g_E-17" value="" style="rounded=0;whiteSpace=wrap;html=1;fontSize=17;align=center;fillColor=#dae8fc;strokeColor=#6c8ebf;" vertex="1" parent="Rxs8dUcnRsXy0uVN2g_E-0">
          <mxGeometry x="30" y="110" width="580" height="60" as="geometry"/>
        </mxCell>
        <mxCell id="Rxs8dUcnRsXy0uVN2g_E-1" value="Page 1" style="strokeWidth=1;shadow=0;dashed=0;align=center;html=1;shape=mxgraph.mockup.containers.anchor;fontSize=17;fontColor=#666666;align=left;" vertex="1" parent="Rxs8dUcnRsXy0uVN2g_E-0">
          <mxGeometry x="60" y="12" width="110" height="26" as="geometry"/>
        </mxCell>
        <mxCell id="Rxs8dUcnRsXy0uVN2g_E-2" value="https://www.draw.io" style="strokeWidth=1;shadow=0;dashed=0;align=center;html=1;shape=mxgraph.mockup.containers.anchor;rSize=0;fontSize=17;fontColor=#666666;align=left;" vertex="1" parent="Rxs8dUcnRsXy0uVN2g_E-0">
          <mxGeometry x="130" y="60" width="250" height="26" as="geometry"/>
        </mxCell>
        <mxCell id="Rxs8dUcnRsXy0uVN2g_E-3" value="&amp;nbsp; space" style="rounded=0;whiteSpace=wrap;html=1;align=left;" vertex="1" parent="Rxs8dUcnRsXy0uVN2g_E-0">
          <mxGeometry x="60" y="120" width="530" height="40" as="geometry"/>
        </mxCell>
        <mxCell id="Rxs8dUcnRsXy0uVN2g_E-4" value="Title" style="text;html=1;strokeColor=none;fillColor=none;align=center;verticalAlign=middle;whiteSpace=wrap;rounded=0;fontStyle=1" vertex="1" parent="Rxs8dUcnRsXy0uVN2g_E-0">
          <mxGeometry x="70" y="180" width="40" height="20" as="geometry"/>
        </mxCell>
        <mxCell id="Rxs8dUcnRsXy0uVN2g_E-5" value="Wordcount" style="text;html=1;strokeColor=none;fillColor=none;align=center;verticalAlign=middle;whiteSpace=wrap;rounded=0;fontStyle=1" vertex="1" parent="Rxs8dUcnRsXy0uVN2g_E-0">
          <mxGeometry x="170" y="180" width="70" height="20" as="geometry"/>
        </mxCell>
        <mxCell id="Rxs8dUcnRsXy0uVN2g_E-6" value="Snippet" style="text;html=1;strokeColor=none;fillColor=none;align=center;verticalAlign=middle;whiteSpace=wrap;rounded=0;fontStyle=1" vertex="1" parent="Rxs8dUcnRsXy0uVN2g_E-0">
          <mxGeometry x="310" y="180" width="70" height="20" as="geometry"/>
        </mxCell>
        <mxCell id="Rxs8dUcnRsXy0uVN2g_E-7" value="" style="endArrow=none;html=1;" edge="1" parent="Rxs8dUcnRsXy0uVN2g_E-0">
          <mxGeometry width="50" height="50" relative="1" as="geometry">
            <mxPoint x="55" y="209.66999999999996" as="sourcePoint"/>
            <mxPoint x="595" y="209.66999999999996" as="targetPoint"/>
          </mxGeometry>
        </mxCell>
        <mxCell id="Rxs8dUcnRsXy0uVN2g_E-8" value="Space" style="text;html=1;strokeColor=none;fillColor=none;align=center;verticalAlign=middle;whiteSpace=wrap;rounded=0;fontStyle=1" vertex="1" parent="Rxs8dUcnRsXy0uVN2g_E-0">
          <mxGeometry x="70" y="220" width="40" height="20" as="geometry"/>
        </mxCell>
        <mxCell id="Rxs8dUcnRsXy0uVN2g_E-9" value="1024" style="text;html=1;strokeColor=none;fillColor=none;align=center;verticalAlign=middle;whiteSpace=wrap;rounded=0;fontStyle=0" vertex="1" parent="Rxs8dUcnRsXy0uVN2g_E-0">
          <mxGeometry x="170" y="220" width="70" height="20" as="geometry"/>
        </mxCell>
        <mxCell id="Rxs8dUcnRsXy0uVN2g_E-10" value="Space is the boundless three-dimensional extent in which objects and events have relative position and direction. Physical space is often conceived in" style="text;html=1;strokeColor=none;fillColor=none;align=left;verticalAlign=middle;whiteSpace=wrap;rounded=0;fontStyle=0;fontSize=10;" vertex="1" parent="Rxs8dUcnRsXy0uVN2g_E-0">
          <mxGeometry x="310" y="223" width="290" height="20" as="geometry"/>
        </mxCell>
        <mxCell id="Rxs8dUcnRsXy0uVN2g_E-11" value="NASA" style="text;html=1;strokeColor=none;fillColor=none;align=center;verticalAlign=middle;whiteSpace=wrap;rounded=0;fontStyle=1" vertex="1" parent="Rxs8dUcnRsXy0uVN2g_E-0">
          <mxGeometry x="70" y="270" width="40" height="20" as="geometry"/>
        </mxCell>
        <mxCell id="Rxs8dUcnRsXy0uVN2g_E-12" value="1024" style="text;html=1;strokeColor=none;fillColor=none;align=center;verticalAlign=middle;whiteSpace=wrap;rounded=0;fontStyle=0" vertex="1" parent="Rxs8dUcnRsXy0uVN2g_E-0">
          <mxGeometry x="170" y="270" width="70" height="20" as="geometry"/>
        </mxCell>
        <mxCell id="Rxs8dUcnRsXy0uVN2g_E-13" value="Aeronautics and Space Administration (NASA, /ˈnæsə/) is an independent agency of the United States Federal Government responsible for the civilian space program" style="text;html=1;strokeColor=none;fillColor=none;align=left;verticalAlign=middle;whiteSpace=wrap;rounded=0;fontStyle=0;fontSize=10;" vertex="1" parent="Rxs8dUcnRsXy0uVN2g_E-0">
          <mxGeometry x="310" y="273" width="290" height="20" as="geometry"/>
        </mxCell>
        <mxCell id="Rxs8dUcnRsXy0uVN2g_E-14" value="Space Station" style="text;html=1;strokeColor=none;fillColor=none;align=left;verticalAlign=middle;whiteSpace=wrap;rounded=0;fontStyle=1" vertex="1" parent="Rxs8dUcnRsXy0uVN2g_E-0">
          <mxGeometry x="70" y="320" width="100" height="20" as="geometry"/>
        </mxCell>
        <mxCell id="Rxs8dUcnRsXy0uVN2g_E-15" value="1024" style="text;html=1;strokeColor=none;fillColor=none;align=center;verticalAlign=middle;whiteSpace=wrap;rounded=0;fontStyle=0" vertex="1" parent="Rxs8dUcnRsXy0uVN2g_E-0">
          <mxGeometry x="170" y="320" width="70" height="20" as="geometry"/>
        </mxCell>
        <mxCell id="Rxs8dUcnRsXy0uVN2g_E-16" value="The International Space Station (ISS) is a space station (habitable artificial satellite) in low Earth orbit. The ISS programme is a joint project between" style="text;html=1;strokeColor=none;fillColor=none;align=left;verticalAlign=middle;whiteSpace=wrap;rounded=0;fontStyle=0;fontSize=10;" vertex="1" parent="Rxs8dUcnRsXy0uVN2g_E-0">
          <mxGeometry x="310" y="323" width="290" height="20" as="geometry"/>
        </mxCell>
        <mxCell id="Rxs8dUcnRsXy0uVN2g_E-21" style="edgeStyle=orthogonalEdgeStyle;rounded=0;orthogonalLoop=1;jettySize=auto;html=1;exitX=1;exitY=0.5;exitDx=0;exitDy=0;fontSize=17;" edge="1" parent="HU6yM0TjJW2TB_AY_Mo2-1" source="Rxs8dUcnRsXy0uVN2g_E-19" target="Rxs8dUcnRsXy0uVN2g_E-17">
          <mxGeometry relative="1" as="geometry"/>
        </mxCell>
        <mxCell id="Rxs8dUcnRsXy0uVN2g_E-19" value="SearchBar" style="rounded=0;whiteSpace=wrap;html=1;fontSize=17;align=center;fillColor=#dae8fc;strokeColor=#6c8ebf;" vertex="1" parent="HU6yM0TjJW2TB_AY_Mo2-1">
          <mxGeometry x="210" y="260" width="120" height="60" as="geometry"/>
        </mxCell>
        <mxCell id="Rxs8dUcnRsXy0uVN2g_E-22" style="edgeStyle=orthogonalEdgeStyle;rounded=0;orthogonalLoop=1;jettySize=auto;html=1;exitX=1;exitY=0.5;exitDx=0;exitDy=0;fontSize=17;" edge="1" parent="HU6yM0TjJW2TB_AY_Mo2-1" source="Rxs8dUcnRsXy0uVN2g_E-20" target="Rxs8dUcnRsXy0uVN2g_E-18">
          <mxGeometry relative="1" as="geometry"/>
        </mxCell>
        <mxCell id="Rxs8dUcnRsXy0uVN2g_E-20" value="PageList" style="rounded=0;whiteSpace=wrap;html=1;fontSize=17;align=center;fillColor=#e1d5e7;strokeColor=#9673a6;" vertex="1" parent="HU6yM0TjJW2TB_AY_Mo2-1">
          <mxGeometry x="210" y="395" width="120" height="60" as="geometry"/>
        </mxCell>
      </root>
    </mxGraphModel>
  </diagram>
  <diagram id="lS9Joc8p82Fb0hdjEziT" name="04 - comps">
    <mxGraphModel dx="747" dy="359" grid="1" gridSize="10" guides="1" tooltips="1" connect="1" arrows="1" fold="1" page="1" pageScale="1" pageWidth="1920" pageHeight="1200" math="0" shadow="0">
      <root>
        <mxCell id="GZx0or1PetMA-Os968Fu-0"/>
        <mxCell id="GZx0or1PetMA-Os968Fu-1" parent="GZx0or1PetMA-Os968Fu-0"/>
        <mxCell id="1UCcSpuoGSSK_1lkAdKl-0" style="edgeStyle=orthogonalEdgeStyle;rounded=0;orthogonalLoop=1;jettySize=auto;html=1;exitX=0.5;exitY=1;exitDx=0;exitDy=0;fontSize=22;" edge="1" parent="GZx0or1PetMA-Os968Fu-1" source="GZx0or1PetMA-Os968Fu-2" target="GZx0or1PetMA-Os968Fu-3">
          <mxGeometry relative="1" as="geometry"/>
        </mxCell>
        <mxCell id="1UCcSpuoGSSK_1lkAdKl-1" style="edgeStyle=orthogonalEdgeStyle;rounded=0;orthogonalLoop=1;jettySize=auto;html=1;exitX=0.5;exitY=1;exitDx=0;exitDy=0;fontSize=22;" edge="1" parent="GZx0or1PetMA-Os968Fu-1" source="GZx0or1PetMA-Os968Fu-2" target="NG4ybn5dJcbg6KCf7Gxo-0">
          <mxGeometry relative="1" as="geometry"/>
        </mxCell>
        <mxCell id="1UCcSpuoGSSK_1lkAdKl-6" style="edgeStyle=orthogonalEdgeStyle;rounded=0;orthogonalLoop=1;jettySize=auto;html=1;exitX=0;exitY=0.25;exitDx=0;exitDy=0;entryX=1;entryY=0.25;entryDx=0;entryDy=0;fontSize=22;" edge="1" parent="GZx0or1PetMA-Os968Fu-1" source="GZx0or1PetMA-Os968Fu-2" target="1UCcSpuoGSSK_1lkAdKl-3">
          <mxGeometry relative="1" as="geometry"/>
        </mxCell>
        <mxCell id="GZx0or1PetMA-Os968Fu-2" value="App" style="rounded=0;whiteSpace=wrap;html=1;fontSize=22;align=center;" vertex="1" parent="GZx0or1PetMA-Os968Fu-1">
          <mxGeometry x="560" y="150" width="120" height="60" as="geometry"/>
        </mxCell>
        <mxCell id="bX3RkWvXUQk1IsNJuvre-0" style="edgeStyle=orthogonalEdgeStyle;rounded=0;orthogonalLoop=1;jettySize=auto;html=1;exitX=0.25;exitY=0;exitDx=0;exitDy=0;entryX=0.25;entryY=1;entryDx=0;entryDy=0;fontSize=12;" edge="1" parent="GZx0or1PetMA-Os968Fu-1" source="GZx0or1PetMA-Os968Fu-3" target="GZx0or1PetMA-Os968Fu-2">
          <mxGeometry relative="1" as="geometry">
            <Array as="points">
              <mxPoint x="470" y="250"/>
              <mxPoint x="590" y="250"/>
            </Array>
          </mxGeometry>
        </mxCell>
        <mxCell id="GZx0or1PetMA-Os968Fu-3" value="SearchBar" style="rounded=0;whiteSpace=wrap;html=1;fontSize=22;align=center;fillColor=#dae8fc;strokeColor=#6c8ebf;" vertex="1" parent="GZx0or1PetMA-Os968Fu-1">
          <mxGeometry x="440" y="330" width="120" height="60" as="geometry"/>
        </mxCell>
        <mxCell id="NG4ybn5dJcbg6KCf7Gxo-0" value="PageList" style="rounded=0;whiteSpace=wrap;html=1;fontSize=22;align=center;fillColor=#e1d5e7;strokeColor=#9673a6;" vertex="1" parent="GZx0or1PetMA-Os968Fu-1">
          <mxGeometry x="680" y="330" width="120" height="60" as="geometry"/>
        </mxCell>
        <mxCell id="1UCcSpuoGSSK_1lkAdKl-5" style="edgeStyle=orthogonalEdgeStyle;rounded=0;orthogonalLoop=1;jettySize=auto;html=1;exitX=1;exitY=0.75;exitDx=0;exitDy=0;entryX=0;entryY=0.75;entryDx=0;entryDy=0;fontSize=22;" edge="1" parent="GZx0or1PetMA-Os968Fu-1" source="1UCcSpuoGSSK_1lkAdKl-3" target="GZx0or1PetMA-Os968Fu-2">
          <mxGeometry relative="1" as="geometry"/>
        </mxCell>
        <mxCell id="1UCcSpuoGSSK_1lkAdKl-3" value="WikipediaService" style="rounded=0;whiteSpace=wrap;html=1;fontSize=22;align=center;fillColor=#ffe6cc;strokeColor=#d79b00;" vertex="1" parent="GZx0or1PetMA-Os968Fu-1">
          <mxGeometry x="220" y="150" width="190" height="60" as="geometry"/>
        </mxCell>
        <mxCell id="1UCcSpuoGSSK_1lkAdKl-7" value="term" style="rounded=0;whiteSpace=wrap;html=1;fontSize=12;align=center;" vertex="1" parent="GZx0or1PetMA-Os968Fu-1">
          <mxGeometry x="450" y="145" width="70" height="20" as="geometry"/>
        </mxCell>
        <mxCell id="1UCcSpuoGSSK_1lkAdKl-8" value="Pages" style="rounded=0;whiteSpace=wrap;html=1;fontSize=12;align=center;" vertex="1" parent="GZx0or1PetMA-Os968Fu-1">
          <mxGeometry x="450" y="195" width="70" height="20" as="geometry"/>
        </mxCell>
        <mxCell id="bX3RkWvXUQk1IsNJuvre-1" value="term" style="rounded=0;whiteSpace=wrap;html=1;fontSize=12;align=center;" vertex="1" parent="GZx0or1PetMA-Os968Fu-1">
          <mxGeometry x="400" y="270" width="70" height="20" as="geometry"/>
        </mxCell>
        <mxCell id="vXaoxF1FkjHIJHMcbnl6-0" value="Pages" style="rounded=0;whiteSpace=wrap;html=1;fontSize=12;align=center;" vertex="1" parent="GZx0or1PetMA-Os968Fu-1">
          <mxGeometry x="740" y="273" width="70" height="20" as="geometry"/>
        </mxCell>
      </root>
    </mxGraphModel>
  </diagram>
  <diagram id="W5dLdjqoOezTGKQ1VYKz" name="05 - diff">
    <mxGraphModel dx="747" dy="359" grid="1" gridSize="10" guides="1" tooltips="1" connect="1" arrows="1" fold="1" page="1" pageScale="1" pageWidth="1920" pageHeight="1200" math="0" shadow="0">
      <root>
        <mxCell id="PJxJHHhYgRFNych-H0iy-0"/>
        <mxCell id="PJxJHHhYgRFNych-H0iy-1" parent="PJxJHHhYgRFNych-H0iy-0"/>
        <mxCell id="PJxJHHhYgRFNych-H0iy-2" value="User types stuff into the text input" style="rounded=0;whiteSpace=wrap;html=1;fontSize=18;align=center;fillColor=#dae8fc;strokeColor=#6c8ebf;" vertex="1" parent="PJxJHHhYgRFNych-H0iy-1">
          <mxGeometry x="450" y="240" width="300" height="60" as="geometry"/>
        </mxCell>
        <mxCell id="PJxJHHhYgRFNych-H0iy-3" value="Style One" style="text;html=1;strokeColor=none;fillColor=none;align=center;verticalAlign=middle;whiteSpace=wrap;rounded=0;fontSize=28;fontStyle=1" vertex="1" parent="PJxJHHhYgRFNych-H0iy-1">
          <mxGeometry x="497.5" y="210" width="205" height="20" as="geometry"/>
        </mxCell>
        <mxCell id="PJxJHHhYgRFNych-H0iy-4" value="User types stuff into the text input" style="rounded=0;whiteSpace=wrap;html=1;fontSize=18;align=center;fillColor=#dae8fc;strokeColor=#6c8ebf;" vertex="1" parent="PJxJHHhYgRFNych-H0iy-1">
          <mxGeometry x="840" y="240" width="300" height="60" as="geometry"/>
        </mxCell>
        <mxCell id="PJxJHHhYgRFNych-H0iy-5" value="Style Two" style="text;html=1;strokeColor=none;fillColor=none;align=center;verticalAlign=middle;whiteSpace=wrap;rounded=0;fontSize=28;fontStyle=1" vertex="1" parent="PJxJHHhYgRFNych-H0iy-1">
          <mxGeometry x="902.5" y="210" width="175" height="20" as="geometry"/>
        </mxCell>
        <mxCell id="HFai970Z5Od6AsLTN9KV-0" style="edgeStyle=orthogonalEdgeStyle;rounded=0;orthogonalLoop=1;jettySize=auto;html=1;exitX=1;exitY=0.5;exitDx=0;exitDy=0;entryX=0.002;entryY=0.558;entryDx=0;entryDy=0;entryPerimeter=0;fontSize=18;" edge="1" parent="PJxJHHhYgRFNych-H0iy-1" source="PJxJHHhYgRFNych-H0iy-6" target="PJxJHHhYgRFNych-H0iy-10">
          <mxGeometry relative="1" as="geometry"/>
        </mxCell>
        <mxCell id="PJxJHHhYgRFNych-H0iy-6" value="User hits the &#39;enter&#39; key to trigger a search" style="rounded=0;whiteSpace=wrap;html=1;fontSize=18;align=center;fillColor=#f8cecc;strokeColor=#b85450;" vertex="1" parent="PJxJHHhYgRFNych-H0iy-1">
          <mxGeometry x="450" y="310" width="300" height="60" as="geometry"/>
        </mxCell>
        <mxCell id="HFai970Z5Od6AsLTN9KV-1" style="edgeStyle=orthogonalEdgeStyle;rounded=0;orthogonalLoop=1;jettySize=auto;html=1;exitX=1;exitY=0.5;exitDx=0;exitDy=0;entryX=0;entryY=0.5;entryDx=0;entryDy=0;fontSize=18;" edge="1" parent="PJxJHHhYgRFNych-H0iy-1" source="PJxJHHhYgRFNych-H0iy-7" target="PJxJHHhYgRFNych-H0iy-9">
          <mxGeometry relative="1" as="geometry"/>
        </mxCell>
        <mxCell id="PJxJHHhYgRFNych-H0iy-7" value="We look at the text input and pull the current value out" style="rounded=0;whiteSpace=wrap;html=1;fontSize=18;align=center;fillColor=#d5e8d4;strokeColor=#82b366;" vertex="1" parent="PJxJHHhYgRFNych-H0iy-1">
          <mxGeometry x="450" y="380" width="300" height="60" as="geometry"/>
        </mxCell>
        <mxCell id="PJxJHHhYgRFNych-H0iy-8" value="We send that current value back to the App component" style="rounded=0;whiteSpace=wrap;html=1;fontSize=18;align=center;fillColor=#dae8fc;strokeColor=#6c8ebf;" vertex="1" parent="PJxJHHhYgRFNych-H0iy-1">
          <mxGeometry x="450" y="450" width="300" height="60" as="geometry"/>
        </mxCell>
        <mxCell id="PJxJHHhYgRFNych-H0iy-9" value="With each keypress, we run an event handler and store the updated text" style="rounded=0;whiteSpace=wrap;html=1;fontSize=18;align=center;fillColor=#d5e8d4;strokeColor=#82b366;" vertex="1" parent="PJxJHHhYgRFNych-H0iy-1">
          <mxGeometry x="840" y="310" width="300" height="60" as="geometry"/>
        </mxCell>
        <mxCell id="PJxJHHhYgRFNych-H0iy-10" value="User hits the &#39;enter&#39; key to trigger a search" style="rounded=0;whiteSpace=wrap;html=1;fontSize=18;align=center;fillColor=#f8cecc;strokeColor=#b85450;" vertex="1" parent="PJxJHHhYgRFNych-H0iy-1">
          <mxGeometry x="840" y="380" width="300" height="60" as="geometry"/>
        </mxCell>
        <mxCell id="PJxJHHhYgRFNych-H0iy-11" value="We take our stored property send it back to the App component" style="rounded=0;whiteSpace=wrap;html=1;fontSize=18;align=center;fillColor=#dae8fc;strokeColor=#6c8ebf;" vertex="1" parent="PJxJHHhYgRFNych-H0iy-1">
          <mxGeometry x="840" y="450" width="300" height="60" as="geometry"/>
        </mxCell>
      </root>
    </mxGraphModel>
  </diagram>
  <diagram id="n-8jsRW9n8HL8XZVnEAn" name="06 - comms">
    <mxGraphModel dx="747" dy="359" grid="1" gridSize="10" guides="1" tooltips="1" connect="1" arrows="1" fold="1" page="1" pageScale="1" pageWidth="1920" pageHeight="1200" math="0" shadow="0">
      <root>
        <mxCell id="wSknwv8qutS8RWmazU4m-0"/>
        <mxCell id="wSknwv8qutS8RWmazU4m-1" parent="wSknwv8qutS8RWmazU4m-0"/>
        <mxCell id="twId2GrNxOe7X0C6yxwC-0" value="App" style="rounded=0;whiteSpace=wrap;html=1;fontSize=22;align=center;" vertex="1" parent="wSknwv8qutS8RWmazU4m-1">
          <mxGeometry x="440" y="150" width="200" height="60" as="geometry"/>
        </mxCell>
        <mxCell id="twId2GrNxOe7X0C6yxwC-7" style="edgeStyle=orthogonalEdgeStyle;rounded=0;orthogonalLoop=1;jettySize=auto;html=1;exitX=0.5;exitY=0;exitDx=0;exitDy=0;entryX=0.5;entryY=1;entryDx=0;entryDy=0;fontSize=18;" edge="1" parent="wSknwv8qutS8RWmazU4m-1" source="twId2GrNxOe7X0C6yxwC-1" target="twId2GrNxOe7X0C6yxwC-0">
          <mxGeometry relative="1" as="geometry"/>
        </mxCell>
        <mxCell id="twId2GrNxOe7X0C6yxwC-1" value="SearchBar" style="rounded=0;whiteSpace=wrap;html=1;fontSize=22;align=center;fillColor=#dae8fc;strokeColor=#6c8ebf;" vertex="1" parent="wSknwv8qutS8RWmazU4m-1">
          <mxGeometry x="440" y="330" width="200" height="60" as="geometry"/>
        </mxCell>
        <mxCell id="twId2GrNxOe7X0C6yxwC-6" value="&lt;b&gt;Child to Parent Communication&lt;/b&gt;" style="text;html=1;strokeColor=none;fillColor=none;align=center;verticalAlign=middle;whiteSpace=wrap;rounded=0;fontSize=18;" vertex="1" parent="wSknwv8qutS8RWmazU4m-1">
          <mxGeometry x="390" y="120" width="300" height="20" as="geometry"/>
        </mxCell>
        <mxCell id="twId2GrNxOe7X0C6yxwC-9" value="term" style="rounded=0;whiteSpace=wrap;html=1;fontSize=14;align=center;" vertex="1" parent="wSknwv8qutS8RWmazU4m-1">
          <mxGeometry x="540" y="260" width="60" height="20" as="geometry"/>
        </mxCell>
      </root>
    </mxGraphModel>
  </diagram>
  <diagram id="l4addjHukP946SrjYVwH" name="07 - docs">
    <mxGraphModel dx="747" dy="359" grid="1" gridSize="10" guides="1" tooltips="1" connect="1" arrows="1" fold="1" page="1" pageScale="1" pageWidth="1920" pageHeight="1200" math="0" shadow="0">
      <root>
        <mxCell id="vIUeItmn4XtzfMA4fAoW-0"/>
        <mxCell id="vIUeItmn4XtzfMA4fAoW-1" parent="vIUeItmn4XtzfMA4fAoW-0"/>
        <mxCell id="vIUeItmn4XtzfMA4fAoW-2" value="mediawiki.org/wiki/API:Main_page" style="rounded=0;whiteSpace=wrap;html=1;fontSize=23;align=center;fillColor=#dae8fc;strokeColor=#6c8ebf;" vertex="1" parent="vIUeItmn4XtzfMA4fAoW-1">
          <mxGeometry x="550" y="280" width="440" height="110" as="geometry"/>
        </mxCell>
      </root>
    </mxGraphModel>
  </diagram>
  <diagram id="wXxabJJtuyI71Xh23fB3" name="08 - services">
    <mxGraphModel dx="747" dy="359" grid="1" gridSize="10" guides="1" tooltips="1" connect="1" arrows="1" fold="1" page="1" pageScale="1" pageWidth="1920" pageHeight="1200" math="0" shadow="0">
      <root>
        <mxCell id="QbElHTPY7XoVYqX2Et37-0"/>
        <mxCell id="QbElHTPY7XoVYqX2Et37-1" parent="QbElHTPY7XoVYqX2Et37-0"/>
        <mxCell id="QbElHTPY7XoVYqX2Et37-2" value="Services" style="text;html=1;strokeColor=none;fillColor=none;align=center;verticalAlign=middle;whiteSpace=wrap;rounded=0;fontSize=28;fontStyle=1" vertex="1" parent="QbElHTPY7XoVYqX2Et37-1">
          <mxGeometry x="540" y="90" width="90" height="30" as="geometry"/>
        </mxCell>
        <mxCell id="QbElHTPY7XoVYqX2Et37-3" value="Used to fetch/store/update any kind of data in our app" style="rounded=0;whiteSpace=wrap;html=1;fontSize=18;align=center;" vertex="1" parent="QbElHTPY7XoVYqX2Et37-1">
          <mxGeometry x="340" y="130" width="490" height="50" as="geometry"/>
        </mxCell>
        <mxCell id="QbElHTPY7XoVYqX2Et37-4" value="Almost always where we are going to put network requests" style="rounded=0;whiteSpace=wrap;html=1;fontSize=18;align=center;" vertex="1" parent="QbElHTPY7XoVYqX2Et37-1">
          <mxGeometry x="340" y="190" width="490" height="50" as="geometry"/>
        </mxCell>
        <mxCell id="QbElHTPY7XoVYqX2Et37-5" value="Data flows from a service to a component" style="rounded=0;whiteSpace=wrap;html=1;fontSize=18;align=center;" vertex="1" parent="QbElHTPY7XoVYqX2Et37-1">
          <mxGeometry x="340" y="250" width="490" height="50" as="geometry"/>
        </mxCell>
        <mxCell id="QbElHTPY7XoVYqX2Et37-6" value="Services are implemented as classes" style="rounded=0;whiteSpace=wrap;html=1;fontSize=18;align=center;" vertex="1" parent="QbElHTPY7XoVYqX2Et37-1">
          <mxGeometry x="340" y="310" width="490" height="50" as="geometry"/>
        </mxCell>
        <mxCell id="QbElHTPY7XoVYqX2Et37-7" value="Angular will &lt;i&gt;automatically&lt;/i&gt;&amp;nbsp;create a &lt;i&gt;single&lt;/i&gt; instance of each service for us" style="rounded=0;whiteSpace=wrap;html=1;fontSize=18;align=center;" vertex="1" parent="QbElHTPY7XoVYqX2Et37-1">
          <mxGeometry x="340" y="370" width="490" height="50" as="geometry"/>
        </mxCell>
      </root>
    </mxGraphModel>
  </diagram>
  <diagram id="SMlZH-VL1xkgH_7a0EhD" name="09 - service">
    <mxGraphModel dx="747" dy="359" grid="1" gridSize="10" guides="1" tooltips="1" connect="1" arrows="1" fold="1" page="1" pageScale="1" pageWidth="1920" pageHeight="1200" math="0" shadow="0">
      <root>
        <mxCell id="udBBtur7FLCKhy6X9aFq-0"/>
        <mxCell id="udBBtur7FLCKhy6X9aFq-1" parent="udBBtur7FLCKhy6X9aFq-0"/>
        <mxCell id="udBBtur7FLCKhy6X9aFq-2" value="private wikipedia: WikipediaService)" style="rounded=0;whiteSpace=wrap;html=1;fontSize=18;align=center;fillColor=#dae8fc;strokeColor=#6c8ebf;" vertex="1" parent="udBBtur7FLCKhy6X9aFq-1">
          <mxGeometry x="560" y="240" width="310" height="50" as="geometry"/>
        </mxCell>
        <mxCell id="udBBtur7FLCKhy6X9aFq-3" value="constructor(" style="rounded=0;whiteSpace=wrap;html=1;fontSize=18;align=center;fillColor=#dae8fc;strokeColor=#6c8ebf;" vertex="1" parent="udBBtur7FLCKhy6X9aFq-1">
          <mxGeometry x="450" y="240" width="110" height="50" as="geometry"/>
        </mxCell>
        <mxCell id="udBBtur7FLCKhy6X9aFq-4" value="{&amp;nbsp; &amp;nbsp;}" style="rounded=0;whiteSpace=wrap;html=1;fontSize=18;align=center;fillColor=#dae8fc;strokeColor=#6c8ebf;" vertex="1" parent="udBBtur7FLCKhy6X9aFq-1">
          <mxGeometry x="869.5" y="240" width="90.5" height="50" as="geometry"/>
        </mxCell>
        <mxCell id="udBBtur7FLCKhy6X9aFq-5" value="" style="shape=curlyBracket;whiteSpace=wrap;html=1;rounded=1;fontSize=18;align=center;rotation=90;" vertex="1" parent="udBBtur7FLCKhy6X9aFq-1">
          <mxGeometry x="495" y="165" width="20" height="110" as="geometry"/>
        </mxCell>
        <mxCell id="udBBtur7FLCKhy6X9aFq-6" value="" style="shape=curlyBracket;whiteSpace=wrap;html=1;rounded=1;fontSize=18;align=center;rotation=-90;" vertex="1" parent="udBBtur7FLCKhy6X9aFq-1">
          <mxGeometry x="904.75" y="260" width="20" height="90.5" as="geometry"/>
        </mxCell>
        <mxCell id="udBBtur7FLCKhy6X9aFq-7" value="Gets called automatically whenever an instance of AppComponent is created" style="text;html=1;strokeColor=none;fillColor=none;align=center;verticalAlign=middle;whiteSpace=wrap;rounded=0;fontSize=12;fontStyle=0" vertex="1" parent="udBBtur7FLCKhy6X9aFq-1">
          <mxGeometry x="422.5" y="160" width="165" height="50" as="geometry"/>
        </mxCell>
        <mxCell id="udBBtur7FLCKhy6X9aFq-8" value="We don&#39;t have anything to write in the body of the constructor, so empty braces" style="text;html=1;strokeColor=none;fillColor=none;align=center;verticalAlign=middle;whiteSpace=wrap;rounded=0;fontSize=12;fontStyle=0" vertex="1" parent="udBBtur7FLCKhy6X9aFq-1">
          <mxGeometry x="832.25" y="310" width="165" height="50" as="geometry"/>
        </mxCell>
      </root>
    </mxGraphModel>
  </diagram>
  <diagram name="10 - serivce" id="H3KqHxUzc0musjw0r3R-">
    <mxGraphModel dx="666" dy="359" grid="1" gridSize="10" guides="1" tooltips="1" connect="1" arrows="1" fold="1" page="1" pageScale="1" pageWidth="1920" pageHeight="1200" math="0" shadow="0">
      <root>
        <mxCell id="AKs85c4nEn8waSlRDNFy-0"/>
        <mxCell id="AKs85c4nEn8waSlRDNFy-1" parent="AKs85c4nEn8waSlRDNFy-0"/>
        <mxCell id="AKs85c4nEn8waSlRDNFy-2" value="private wikipedia: WikipediaService)" style="rounded=0;whiteSpace=wrap;html=1;fontSize=18;align=center;fillColor=#dae8fc;strokeColor=#6c8ebf;" vertex="1" parent="AKs85c4nEn8waSlRDNFy-1">
          <mxGeometry x="560" y="240" width="310" height="50" as="geometry"/>
        </mxCell>
        <mxCell id="AKs85c4nEn8waSlRDNFy-3" value="constructor(" style="rounded=0;whiteSpace=wrap;html=1;fontSize=18;align=center;fillColor=#dae8fc;strokeColor=#6c8ebf;" vertex="1" parent="AKs85c4nEn8waSlRDNFy-1">
          <mxGeometry x="450" y="240" width="110" height="50" as="geometry"/>
        </mxCell>
        <mxCell id="AKs85c4nEn8waSlRDNFy-4" value="{&amp;nbsp; &amp;nbsp;}" style="rounded=0;whiteSpace=wrap;html=1;fontSize=18;align=center;fillColor=#dae8fc;strokeColor=#6c8ebf;" vertex="1" parent="AKs85c4nEn8waSlRDNFy-1">
          <mxGeometry x="869.5" y="240" width="90.5" height="50" as="geometry"/>
        </mxCell>
        <mxCell id="AKs85c4nEn8waSlRDNFy-5" value="" style="shape=curlyBracket;whiteSpace=wrap;html=1;rounded=1;fontSize=18;align=center;rotation=90;strokeWidth=2;" vertex="1" parent="AKs85c4nEn8waSlRDNFy-1">
          <mxGeometry x="620" y="168" width="38" height="136" as="geometry"/>
        </mxCell>
        <mxCell id="AKs85c4nEn8waSlRDNFy-7" value="&#39;wikipedia&#39; will be added as a &#39;private&#39; property &lt;i&gt;automatically&lt;/i&gt;&amp;nbsp;to the instance of the App component" style="text;html=1;strokeColor=none;fillColor=none;align=center;verticalAlign=middle;whiteSpace=wrap;rounded=0;fontSize=12;fontStyle=0" vertex="1" parent="AKs85c4nEn8waSlRDNFy-1">
          <mxGeometry x="556.5" y="160" width="165" height="60" as="geometry"/>
        </mxCell>
        <mxCell id="_JylXqgn7el4qpckgFFf-0" value="" style="shape=curlyBracket;whiteSpace=wrap;html=1;rounded=1;fontSize=18;align=center;rotation=-90;strokeWidth=2;" vertex="1" parent="AKs85c4nEn8waSlRDNFy-1">
          <mxGeometry x="770" y="230" width="38" height="136" as="geometry"/>
        </mxCell>
        <mxCell id="_JylXqgn7el4qpckgFFf-1" value="&#39;wikipedia&#39; will be of type &#39;Instance of WikipediaService&#39;" style="text;html=1;strokeColor=none;fillColor=none;align=center;verticalAlign=middle;whiteSpace=wrap;rounded=0;fontSize=12;fontStyle=0" vertex="1" parent="AKs85c4nEn8waSlRDNFy-1">
          <mxGeometry x="706.5" y="316" width="165" height="30" as="geometry"/>
        </mxCell>
      </root>
    </mxGraphModel>
  </diagram>
  <diagram id="dGOfUkdj3caqpj-yBQBy" name="11 - DI">
    <mxGraphModel dx="747" dy="359" grid="1" gridSize="10" guides="1" tooltips="1" connect="1" arrows="1" fold="1" page="1" pageScale="1" pageWidth="1920" pageHeight="1200" math="0" shadow="0">
      <root>
        <mxCell id="Jy2yGZOvvMkZB2We71Da-0"/>
        <mxCell id="Jy2yGZOvvMkZB2We71Da-1" parent="Jy2yGZOvvMkZB2We71Da-0"/>
        <mxCell id="UCvL0g0zG1OU-FdawaFi-18" style="edgeStyle=orthogonalEdgeStyle;rounded=0;orthogonalLoop=1;jettySize=auto;html=1;exitX=0.75;exitY=1;exitDx=0;exitDy=0;entryX=0.75;entryY=0;entryDx=0;entryDy=0;fontSize=12;" edge="1" parent="Jy2yGZOvvMkZB2We71Da-1" source="Jy2yGZOvvMkZB2We71Da-2" target="UCvL0g0zG1OU-FdawaFi-14">
          <mxGeometry relative="1" as="geometry"/>
        </mxCell>
        <mxCell id="Jy2yGZOvvMkZB2We71Da-2" value="" style="rounded=0;whiteSpace=wrap;html=1;strokeWidth=1;fontSize=12;align=center;fillColor=#dae8fc;strokeColor=#6c8ebf;" vertex="1" parent="Jy2yGZOvvMkZB2We71Da-1">
          <mxGeometry x="540" y="550" width="310" height="120" as="geometry"/>
        </mxCell>
        <mxCell id="Jy2yGZOvvMkZB2We71Da-3" value="Injector/Container" style="text;html=1;strokeColor=none;fillColor=none;align=center;verticalAlign=middle;whiteSpace=wrap;rounded=0;fontSize=18;fontStyle=1" vertex="1" parent="Jy2yGZOvvMkZB2We71Da-1">
          <mxGeometry x="660" y="560" width="70" height="20" as="geometry"/>
        </mxCell>
        <mxCell id="UCvL0g0zG1OU-FdawaFi-4" style="edgeStyle=orthogonalEdgeStyle;rounded=0;orthogonalLoop=1;jettySize=auto;html=1;exitX=1;exitY=0.5;exitDx=0;exitDy=0;fontSize=12;" edge="1" parent="Jy2yGZOvvMkZB2We71Da-1" source="UCvL0g0zG1OU-FdawaFi-0" target="UCvL0g0zG1OU-FdawaFi-2">
          <mxGeometry relative="1" as="geometry"/>
        </mxCell>
        <mxCell id="UCvL0g0zG1OU-FdawaFi-0" value="Car" style="rounded=0;whiteSpace=wrap;html=1;strokeWidth=1;fontSize=12;align=center;" vertex="1" parent="Jy2yGZOvvMkZB2We71Da-1">
          <mxGeometry x="557.5" y="590" width="100" height="30" as="geometry"/>
        </mxCell>
        <mxCell id="UCvL0g0zG1OU-FdawaFi-5" style="edgeStyle=orthogonalEdgeStyle;rounded=0;orthogonalLoop=1;jettySize=auto;html=1;exitX=1;exitY=0.5;exitDx=0;exitDy=0;fontSize=12;" edge="1" parent="Jy2yGZOvvMkZB2We71Da-1" source="UCvL0g0zG1OU-FdawaFi-1" target="UCvL0g0zG1OU-FdawaFi-3">
          <mxGeometry relative="1" as="geometry"/>
        </mxCell>
        <mxCell id="UCvL0g0zG1OU-FdawaFi-1" value="WikipediaService" style="rounded=0;whiteSpace=wrap;html=1;strokeWidth=1;fontSize=12;align=center;" vertex="1" parent="Jy2yGZOvvMkZB2We71Da-1">
          <mxGeometry x="557.5" y="630" width="100" height="30" as="geometry"/>
        </mxCell>
        <mxCell id="UCvL0g0zG1OU-FdawaFi-2" value="new Car()" style="rounded=0;whiteSpace=wrap;html=1;strokeWidth=1;fontSize=12;align=center;" vertex="1" parent="Jy2yGZOvvMkZB2We71Da-1">
          <mxGeometry x="692.5" y="590" width="137.5" height="30" as="geometry"/>
        </mxCell>
        <mxCell id="UCvL0g0zG1OU-FdawaFi-3" value="new WikipediaService()" style="rounded=0;whiteSpace=wrap;html=1;strokeWidth=1;fontSize=12;align=center;" vertex="1" parent="Jy2yGZOvvMkZB2We71Da-1">
          <mxGeometry x="692.5" y="630" width="137.5" height="30" as="geometry"/>
        </mxCell>
        <mxCell id="UCvL0g0zG1OU-FdawaFi-17" style="edgeStyle=orthogonalEdgeStyle;rounded=0;orthogonalLoop=1;jettySize=auto;html=1;exitX=0.25;exitY=0;exitDx=0;exitDy=0;entryX=0.25;entryY=1;entryDx=0;entryDy=0;fontSize=20;" edge="1" parent="Jy2yGZOvvMkZB2We71Da-1" source="UCvL0g0zG1OU-FdawaFi-14" target="Jy2yGZOvvMkZB2We71Da-2">
          <mxGeometry relative="1" as="geometry"/>
        </mxCell>
        <mxCell id="UCvL0g0zG1OU-FdawaFi-14" value="Angular" style="rounded=0;whiteSpace=wrap;html=1;strokeWidth=1;fontSize=20;align=center;fillColor=#e1d5e7;strokeColor=#9673a6;fontStyle=1" vertex="1" parent="Jy2yGZOvvMkZB2We71Da-1">
          <mxGeometry x="540" y="780" width="310" height="60" as="geometry"/>
        </mxCell>
        <mxCell id="UCvL0g0zG1OU-FdawaFi-16" value="I&#39;m trying to show the App component.&amp;nbsp; It says it needs WikipediaService and Car" style="rounded=0;whiteSpace=wrap;html=1;strokeWidth=1;fontSize=12;align=center;fontStyle=2" vertex="1" parent="Jy2yGZOvvMkZB2We71Da-1">
          <mxGeometry x="450" y="698" width="168" height="60" as="geometry"/>
        </mxCell>
        <mxCell id="UCvL0g0zG1OU-FdawaFi-19" value="Sure, here&#39;s an instance of Car and WikipediaService" style="rounded=0;whiteSpace=wrap;html=1;strokeWidth=1;fontSize=12;align=center;fontStyle=2" vertex="1" parent="Jy2yGZOvvMkZB2We71Da-1">
          <mxGeometry x="772" y="698" width="168" height="60" as="geometry"/>
        </mxCell>
      </root>
    </mxGraphModel>
  </diagram>
</mxfile>
